<?xml version="1.0" encoding="UTF-8" standalone="no"?><svg xmlns="http://www.w3.org/2000/svg" xmlns:xlink= "http://www.w3.org/1999/xlink" width="600" height="390" style="overflow: hidden;" aria-label="A chart."><defs id="_ABSTRACT_RENDERER_ID_391"><clipPath id="_ABSTRACT_RENDERER_ID_392"><rect x="115" y="75" width="371" height="241"></rect></clipPath></defs><rect x="0" y="0" width="600" height="390" stroke="none" stroke-width="0" fill="#ffffff"></rect><g><text text-anchor="start" x="115" y="31.55" font-family="Arial" font-size="13" font-weight="bold" stroke="none" stroke-width="0" fill="#000000">GC Benchmark</text><rect x="115" y="20.5" width="371" height="13" stroke="none" stroke-width="0" fill-opacity="0" fill="#ffffff"></rect></g><g><rect x="115" y="42" width="264" height="13" stroke="none" stroke-width="0" fill-opacity="0" fill="#ffffff"></rect><g><rect x="115" y="42" width="136" height="13" stroke="none" stroke-width="0" fill-opacity="0" fill="#ffffff"></rect><g><text text-anchor="start" x="146" y="53.05" font-family="Arial" font-size="13" stroke="none" stroke-width="0" fill="#222222">Throughput (req/s)</text></g><rect x="115" y="42" width="26" height="13" stroke="none" stroke-width="0" fill="#3366cc"></rect></g><g><rect x="272" y="42" width="107" height="13" stroke="none" stroke-width="0" fill-opacity="0" fill="#ffffff"></rect><g><text text-anchor="start" x="303" y="53.05" font-family="Arial" font-size="13" stroke="none" stroke-width="0" fill="#222222">Latency (ms)</text></g><rect x="272" y="42" width="26" height="13" stroke="none" stroke-width="0" fill="#dc3912"></rect></g></g><g><rect x="115" y="75" width="371" height="241" stroke="none" stroke-width="0" fill-opacity="0" fill="#ffffff"></rect><g clip-path="url(https://www.rapidtables.com/tools/bar-graph.html#_ABSTRACT_RENDERER_ID_392)"><g><rect x="115" y="315" width="371" height="1" stroke="none" stroke-width="0" fill="#cccccc"></rect><rect x="115" y="267" width="371" height="1" stroke="none" stroke-width="0" fill="#cccccc"></rect><rect x="115" y="219" width="371" height="1" stroke="none" stroke-width="0" fill="#cccccc"></rect><rect x="115" y="171" width="371" height="1" stroke="none" stroke-width="0" fill="#cccccc"></rect><rect x="115" y="123" width="371" height="1" stroke="none" stroke-width="0" fill="#cccccc"></rect><rect x="115" y="75" width="371" height="1" stroke="none" stroke-width="0" fill="#cccccc"></rect><rect x="115" y="291" width="371" height="1" stroke="none" stroke-width="0" fill="#ebebeb"></rect><rect x="115" y="243" width="371" height="1" stroke="none" stroke-width="0" fill="#ebebeb"></rect><rect x="115" y="195" width="371" height="1" stroke="none" stroke-width="0" fill="#ebebeb"></rect><rect x="115" y="147" width="371" height="1" stroke="none" stroke-width="0" fill="#ebebeb"></rect><rect x="115" y="99" width="371" height="1" stroke="none" stroke-width="0" fill="#ebebeb"></rect></g><g><rect x="139" y="235" width="38" height="80" stroke="none" stroke-width="0" fill="#3366cc"></rect><rect x="262" y="234" width="38" height="81" stroke="none" stroke-width="0" fill="#3366cc"></rect><rect x="386" y="235" width="37" height="80" stroke="none" stroke-width="0" fill="#3366cc"></rect><rect x="178" y="79" width="37" height="236" stroke="none" stroke-width="0" fill="#dc3912"></rect><rect x="301" y="264" width="38" height="51" stroke="none" stroke-width="0" fill="#dc3912"></rect><rect x="424" y="269" width="38" height="46" stroke="none" stroke-width="0" fill="#dc3912"></rect></g><g><rect x="115" y="315" width="371" height="1" stroke="none" stroke-width="0" fill="#333333"></rect></g></g><g></g><g><g><text text-anchor="middle" x="177.16666666666666" y="335.05" font-family="Arial" font-size="13" stroke="none" stroke-width="0" fill="#222222">Parallel</text></g><g><text text-anchor="middle" x="300.5" y="335.05" font-family="Arial" font-size="13" stroke="none" stroke-width="0" fill="#222222">G1</text></g><g><text text-anchor="middle" x="423.8333333333333" y="335.05" font-family="Arial" font-size="13" stroke="none" stroke-width="0" fill="#222222">ZGC</text></g><g><text text-anchor="end" x="102" y="320.05" font-family="Arial" font-size="13" stroke="none" stroke-width="0" fill="#444444">0</text></g><g><text text-anchor="end" x="102" y="272.05" font-family="Arial" font-size="13" stroke="none" stroke-width="0" fill="#444444">50</text></g><g><text text-anchor="end" x="102" y="224.05" font-family="Arial" font-size="13" stroke="none" stroke-width="0" fill="#444444">100</text></g><g><text text-anchor="end" x="102" y="176.05" font-family="Arial" font-size="13" stroke="none" stroke-width="0" fill="#444444">150</text></g><g><text text-anchor="end" x="102" y="128.05" font-family="Arial" font-size="13" stroke="none" stroke-width="0" fill="#444444">200</text></g><g><text text-anchor="end" x="102" y="80.05" font-family="Arial" font-size="13" stroke="none" stroke-width="0" fill="#444444">250</text></g></g></g><g><g><text text-anchor="middle" x="300.5" y="368.05" font-family="Arial" font-size="13" font-style="italic" stroke="none" stroke-width="0" fill="#222222">Garbage collector</text><rect x="115" y="357" width="371" height="13" stroke="none" stroke-width="0" fill-opacity="0" fill="#ffffff"></rect></g><g><text text-anchor="middle" x="45.05" y="195.5" font-family="Arial" font-size="13" font-style="italic" transform="rotate(-90 45.05 195.5)" stroke="none" stroke-width="0" fill="#222222">Time (ms)</text><path d="M33.99999999999999,316L34.00000000000001,75L47.00000000000001,75L46.99999999999999,316Z" stroke="none" stroke-width="0" fill-opacity="0" fill="#ffffff"></path></g></g><g></g></svg>